<svg width="42" height="42" viewBox="0 0 42 42" fill="none" xmlns="http://www.w3.org/2000/svg">
<circle cx="21" cy="21" r="20.5" fill="white" stroke="#E9F1FF"/>
<path d="M13.5771 18.8369H28.4304" stroke="#002055" stroke-width="1.5" stroke-linecap="round" stroke-linejoin="round"/>
<path d="M24.7017 22.0915H24.7094" stroke="#002055" stroke-width="1.5" stroke-linecap="round" stroke-linejoin="round"/>
<path d="M21.0038 22.0915H21.0116" stroke="#002055" stroke-width="1.5" stroke-linecap="round" stroke-linejoin="round"/>
<path d="M17.2983 22.0915H17.306" stroke="#002055" stroke-width="1.5" stroke-linecap="round" stroke-linejoin="round"/>
<path d="M24.7017 25.3302H24.7094" stroke="#002055" stroke-width="1.5" stroke-linecap="round" stroke-linejoin="round"/>
<path d="M21.0038 25.3302H21.0116" stroke="#002055" stroke-width="1.5" stroke-linecap="round" stroke-linejoin="round"/>
<path d="M17.2983 25.3302H17.306" stroke="#002055" stroke-width="1.5" stroke-linecap="round" stroke-linejoin="round"/>
<path d="M24.3698 12.6667V15.409" stroke="#002055" stroke-width="1.5" stroke-linecap="round" stroke-linejoin="round"/>
<path d="M17.638 12.6667V15.409" stroke="#002055" stroke-width="1.5" stroke-linecap="round" stroke-linejoin="round"/>
<path fill-rule="evenodd" clip-rule="evenodd" d="M24.5319 13.9827H17.4758C15.0286 13.9827 13.5 15.3459 13.5 17.8519V25.3932C13.5 27.9385 15.0286 29.3333 17.4758 29.3333H24.5242C26.9791 29.3333 28.5 27.9622 28.5 25.4563V17.8519C28.5077 15.3459 26.9868 13.9827 24.5319 13.9827Z" stroke="#002055" stroke-width="1.5" stroke-linecap="round" stroke-linejoin="round"/>
</svg>
